<?xml version="1.0" encoding="UTF-8"?>
<svg width="13px" height="20px" viewBox="0 0 13 20" version="1.1" xmlns="http://www.w3.org/2000/svg" xmlns:xlink="http://www.w3.org/1999/xlink">
    <!-- Generator: Sketch 52.5 (67469) - http://www.bohemiancoding.com/sketch -->
    <title>Path</title>
    <desc>Created with Sketch.</desc>
    <g id="home" stroke="none" stroke-width="1" fill="none" fill-rule="evenodd">
        <g id="Jobs-2019" transform="translate(-1517.000000, -1385.000000)" fill="#000000">
            <path d="M1529.375,1395.425 C1529.375,1395.925 1529.11667,1396.4 1528.6,1396.85 L1519.8,1404.675 C1519.66667,1404.80833 1519.52083,1404.9 1519.3625,1404.95 C1519.20417,1405 1519.05833,1405.025 1518.925,1405.025 C1518.59167,1405.025 1518.30417,1404.89167 1518.0625,1404.625 C1517.82083,1404.35833 1517.7,1404.05833 1517.7,1403.725 C1517.7,1403.39166 1517.84167,1403.09167 1518.125,1402.825 L1526.35,1395.425 L1518.125,1388.025 C1517.84167,1387.75833 1517.7,1387.45833 1517.7,1387.125 C1517.7,1386.79166 1517.82083,1386.49167 1518.0625,1386.225 C1518.30417,1385.95833 1518.59167,1385.825 1518.925,1385.825 C1519.05833,1385.825 1519.20417,1385.85 1519.3625,1385.9 C1519.52083,1385.95 1519.66667,1386.04167 1519.8,1386.175 L1528.525,1393.9 C1529.09167,1394.41667 1529.375,1394.925 1529.375,1395.425 Z" id="Path"></path>
        </g>
    </g>
</svg>