<?xml version="1.0" encoding="UTF-8"?>
<svg width="12px" height="20px" viewBox="0 0 12 20" version="1.1" xmlns="http://www.w3.org/2000/svg" xmlns:xlink="http://www.w3.org/1999/xlink">
    <!-- Generator: Sketch 52.5 (67469) - http://www.bohemiancoding.com/sketch -->
    <title>Path</title>
    <desc>Created with Sketch.</desc>
    <g id="home" stroke="none" stroke-width="1" fill="none" fill-rule="evenodd">
        <g id="Jobs-2019" transform="translate(-1431.000000, -1385.000000)" fill="#000000">
            <path d="M1442.95,1403.725 C1442.95,1404.05833 1442.82917,1404.35833 1442.5875,1404.625 C1442.34583,1404.89167 1442.05834,1405.025 1441.725,1405.025 C1441.59167,1405.025 1441.44583,1405 1441.2875,1404.95 C1441.12917,1404.9 1440.98333,1404.80833 1440.85,1404.675 L1432.05,1396.85 C1431.53333,1396.4 1431.275,1395.925 1431.275,1395.425 C1431.275,1394.925 1431.56666,1394.41667 1432.15,1393.9 L1440.85,1386.175 C1440.98333,1386.04167 1441.12917,1385.95 1441.2875,1385.9 C1441.44583,1385.85 1441.59167,1385.825 1441.725,1385.825 C1442.05834,1385.825 1442.34583,1385.95833 1442.5875,1386.225 C1442.82917,1386.49167 1442.95,1386.79166 1442.95,1387.125 C1442.95,1387.45833 1442.80833,1387.75833 1442.525,1388.025 L1434.3,1395.425 L1442.525,1402.825 C1442.80833,1403.09167 1442.95,1403.39166 1442.95,1403.725 Z" id="Path"></path>
        </g>
    </g>
</svg>